# xmcd CD database file
#
# Track frame offsets:
#	150
#	13658
#	24954
#	37866
#	51244
#	62852
#	76936
#	88926
#	102643
#	116174
#	130672
#	142723
#	154566
#	166012
#	179294
#	191244
#	202016
#	216781
#	230859
#	243430
#	258080
#	272548
#	286759
#	299634
#	312296
#
# Disc length: 4361 seconds
#
# Revision: 3
# Processed by: cddbd v1.5.2PL0 Copyright (c) Steve Scherf et al.
# Submitted via: CDex 1.51
#
DISCID=64110719
DTITLE=Artie Shaw - Begin The Beguine  [CD 03-10]
DYEAR=2005
DGENRE=Jazz
TTITLE0=If It's The Last Thing I Do
TTITLE1=Nightmare
TTITLE2=Shoot The Likker To Me, John Boy
TTITLE3=Free Wheeling
TTITLE4=Let 'Er Go
TTITLE5=A Strange Loneliness
TTITLE6=Monsoon
TTITLE7=I'm Yours
TTITLE8=Just You, Just Me
TTITLE9=Free For All
TTITLE10=Whistle While You Work
TTITLE11=One Song
TTITLE12=Goodnight, Angel
TTITLE13=There's A New Moon Over The Old Mill
TTITLE14=Non Stop Flight
TTITLE15=I'll Be With You In Apple-Blossom Time
TTITLE16=Begin The Beguine
TTITLE17=Indian Love Call
TTITLE18=Comin' On
TTITLE19=Back Bay Shuffle
TTITLE20=Any Old Time
TTITLE21=I Can't Believe That You're In Love With Me
TTITLE22=Nightmare
TTITLE23=Non-Stop Flight
TTITLE24=Yesterdays
EXTD=YEAR: 2005
EXTT0=
EXTT1=
EXTT2=
EXTT3=
EXTT4=
EXTT5=
EXTT6=
EXTT7=
EXTT8=
EXTT9=
EXTT10=
EXTT11=
EXTT12=
EXTT13=
EXTT14=
EXTT15=
EXTT16=
EXTT17=
EXTT18=
EXTT19=
EXTT20=
EXTT21=
EXTT22=
EXTT23=
EXTT24=
PLAYORDER=
